<?xml version="1.0" standalone="no"?>
<!DOCTYPE svg PUBLIC "-//W3C//DTD SVG 20010904//EN"
 "http://www.w3.org/TR/2001/REC-SVG-20010904/DTD/svg10.dtd">
<svg version="1.0" xmlns="http://www.w3.org/2000/svg"
 width="700.000000pt" height="700.000000pt" viewBox="0 0 700.000000 700.000000"
 preserveAspectRatio="xMidYMid meet">
<metadata>
Created by potrace 1.14, written by Peter Selinger 2001-2017
</metadata>
<g transform="translate(0.000000,700.000000) scale(0.100000,-0.100000)"
fill="#000000" stroke="none">
<path d="M1270 4365 l0 -1375 705 0 705 0 0 -355 0 -355 -705 0 -705 0 0 -505
0 -505 990 0 990 0 0 2235 0 2235 -285 0 -285 0 0 -740 0 -740 -140 0 -140 0
0 740 0 740 -565 0 -565 0 0 -1375z"/>
<path d="M3760 3505 l0 -2235 290 0 290 0 0 860 0 860 135 0 135 0 2 -857 3
-858 563 -3 562 -2 0 2235 0 2235 -565 0 -565 0 0 -740 0 -740 -135 0 -135 0
0 740 0 740 -290 0 -290 0 0 -2235z"/>
<path d="M3372 3508 l3 -2103 135 0 135 0 0 2100 0 2100 -138 3 -137 3 2
-2103z"/>
</g>
</svg>
